<svg xmlns="http://www.w3.org/2000/svg" xmlns:xlink="http://www.w3.org/1999/xlink" xmlns:lucid="lucid" width="800" height="500"><g transform="translate(-79.99999999999999 -20)" lucid:page-tab-id="0_0"><path d="M0 0h1870.4v1323.2H0z" fill="#fff"/><path d="M100 46c0-3.3 2.7-6 6-6h188c3.3 0 6 2.7 6 6v48c0 3.3-2.7 6-6 6H106c-3.3 0-6-2.7-6-6z" stroke="#000" stroke-opacity="0" stroke-width="3" fill="#fff" fill-opacity="0"/><use xlink:href="#a" transform="matrix(1,0,0,1,105,45) translate(1.6514756944444287 30.2734375)"/><use xlink:href="#b" transform="matrix(1,0,0,1,105,45) translate(108.33550347222223 30.2734375)"/><path d="M260 100c22.1 0 40 8.95 40 20s-17.9 20-40 20H140c-22.1 0-40-8.95-40-20s17.9-20 40-20z" stroke="#5e5e5e" stroke-width="3" fill="#fff"/><use xlink:href="#c" transform="matrix(1,0,0,1,104.99999999999999,105) translate(48.33073784722221 21.5234375)"/><path d="M260 300c22.1 0 40 8.95 40 20s-17.9 20-40 20H140c-22.1 0-40-8.95-40-20s17.9-20 40-20z" stroke="#5e5e5e" stroke-width="3" fill="#fff"/><use xlink:href="#d" transform="matrix(1,0,0,1,104.99999999999999,305) translate(68.33399305555557 21.5234375)"/><path d="M260 380c22.1 0 40 8.95 40 20s-17.9 20-40 20H140c-22.1 0-40-8.95-40-20s17.9-20 40-20z" stroke="#5e5e5e" stroke-width="3" fill="#fff"/><use xlink:href="#e" transform="matrix(1,0,0,1,104.99999999999999,385) translate(61.66624131944444 21.5234375)"/><path d="M260 460c22.1 0 40 8.95 40 20s-17.9 20-40 20H140c-22.1 0-40-8.95-40-20s17.9-20 40-20z" stroke="#5e5e5e" stroke-width="3" fill="#fff"/><use xlink:href="#f" transform="matrix(1,0,0,1,104.99999999999999,465) translate(61.66624131944444 21.5234375)"/><path d="M200 342.25v18.8" stroke="#9a9a9a" stroke-width="1.5" fill="none"/><path d="M200.75 342.27h-1.5v-.77h1.5z" fill="#9a9a9a"/><path d="M200 376.07l-4.64-14.26h9.28z" stroke="#9a9a9a" stroke-width="1.5" fill="#9a9a9a"/><path d="M200 422.25v18.8" stroke="#9a9a9a" stroke-width="1.5" fill="none"/><path d="M200.75 422.27h-1.5v-.77h1.5z" fill="#9a9a9a"/><path d="M200 456.07l-4.64-14.26h9.28z" stroke="#9a9a9a" stroke-width="1.5" fill="#9a9a9a"/><path d="M100 186.83c0-3.3 2.7-6 6-6h188c3.3 0 6 2.7 6 6v66.34c0 3.3-2.7 6-6 6H106c-3.3 0-6-2.7-6-6z" stroke="#5e5e5e" stroke-width="3" fill="#fff"/><use xlink:href="#g" transform="matrix(1,0,0,1,105,185.83333333333334) translate(14.986979166666643 30.7109375)"/><use xlink:href="#h" transform="matrix(1,0,0,1,105,185.83333333333334) translate(54.99348958333333 52.93315972222222)"/><path d="M200 142.25v19.64" stroke="#9a9a9a" stroke-width="1.5" fill="none"/><path d="M200.75 142.27h-1.5v-.77h1.5z" fill="#9a9a9a"/><path d="M200 176.9l-4.64-14.26h9.28z" stroke="#9a9a9a" stroke-width="1.5" fill="#9a9a9a"/><path d="M200 261.42v19.64" stroke="#9a9a9a" stroke-width="1.5" fill="none"/><path d="M200.75 261.44h-1.5v-.77h1.5z" fill="#9a9a9a"/><path d="M200 296.07l-4.64-14.26h9.28z" stroke="#9a9a9a" stroke-width="1.5" fill="#9a9a9a"/><path d="M380 46c0-3.3 2.7-6 6-6h188c3.3 0 6 2.7 6 6v48c0 3.3-2.7 6-6 6H386c-3.3 0-6-2.7-6-6z" stroke="#000" stroke-opacity="0" stroke-width="3" fill="#fff" fill-opacity="0"/><use xlink:href="#i" transform="matrix(1,0,0,1,385,45) translate(41.65798611111111 30.2734375)"/><use xlink:href="#j" transform="matrix(1,0,0,1,385,45) translate(121.67100694444446 30.2734375)"/><path d="M540 100c22.1 0 40 8.95 40 20s-17.9 20-40 20H420c-22.1 0-40-8.95-40-20s17.9-20 40-20z" stroke="#5e5e5e" stroke-width="3" fill="#fff"/><use xlink:href="#k" transform="matrix(1,0,0,1,385,105) translate(48.33073784722221 21.5234375)"/><path d="M540 180.83c22.1 0 40 8.96 40 20 0 11.05-17.9 20-40 20H420c-22.1 0-40-8.95-40-20 0-11.04 17.9-20 40-20z" stroke="#5e5e5e" stroke-width="3" fill="#fff"/><use xlink:href="#d" transform="matrix(1,0,0,1,385,185.83333333333334) translate(68.33399305555557 21.5234375)"/><path d="M540 259.17c22.1 0 40 8.95 40 20 0 11.04-17.9 20-40 20H420c-22.1 0-40-8.96-40-20 0-11.05 17.9-20 40-20z" stroke="#5e5e5e" stroke-width="3" fill="#fff"/><use xlink:href="#e" transform="matrix(1,0,0,1,385,264.16666666666663) translate(61.66624131944444 21.5234375)"/><path d="M540 460c22.1 0 40 8.95 40 20s-17.9 20-40 20H420c-22.1 0-40-8.95-40-20s17.9-20 40-20z" stroke="#5e5e5e" stroke-width="3" fill="#fff"/><use xlink:href="#f" transform="matrix(1,0,0,1,385,465) translate(61.66624131944444 21.5234375)"/><path d="M480 223.08v17.14" stroke="#9a9a9a" stroke-width="1.5" fill="none"/><path d="M480.75 223.1h-1.5v-.77h1.5z" fill="#9a9a9a"/><path d="M480 255.24l-4.64-14.27h9.28z" stroke="#9a9a9a" stroke-width="1.5" fill="#9a9a9a"/><path d="M380 346c0-3.3 2.7-6 6-6h188c3.3 0 6 2.7 6 6v66.33c0 3.32-2.7 6-6 6H386c-3.3 0-6-2.68-6-6z" stroke="#5e5e5e" stroke-width="3" fill="#fff"/><use xlink:href="#g" transform="matrix(1,0,0,1,385,345) translate(14.986979166666643 30.7109375)"/><use xlink:href="#h" transform="matrix(1,0,0,1,385,345) translate(54.99348958333333 52.93315972222222)"/><path d="M660 46c0-3.3 2.7-6 6-6h188c3.3 0 6 2.7 6 6v48c0 3.3-2.7 6-6 6H666c-3.3 0-6-2.7-6-6z" stroke="#000" stroke-opacity="0" stroke-width="3" fill="#fff" fill-opacity="0"/><use xlink:href="#l" transform="matrix(1,0,0,1,665,45) translate(34.99023437499999 30.2734375)"/><use xlink:href="#j" transform="matrix(1,0,0,1,665,45) translate(128.33875868055557 30.2734375)"/><path d="M820 100c22.1 0 40 8.95 40 20s-17.9 20-40 20H700c-22.1 0-40-8.95-40-20s17.9-20 40-20z" stroke="#5e5e5e" stroke-width="3" fill="#fff"/><use xlink:href="#k" transform="matrix(1,0,0,1,665,105) translate(48.33073784722221 21.5234375)"/><path d="M820 180.83c22.1 0 40 8.96 40 20 0 11.05-17.9 20-40 20H700c-22.1 0-40-8.95-40-20 0-11.04 17.9-20 40-20z" stroke="#5e5e5e" stroke-width="3" fill="#fff"/><use xlink:href="#d" transform="matrix(1,0,0,1,665,185.83333333333334) translate(68.33399305555557 21.5234375)"/><path d="M820 260c22.1 0 40 8.95 40 20s-17.9 20-40 20H700c-22.1 0-40-8.95-40-20s17.9-20 40-20z" stroke="#5e5e5e" stroke-width="3" fill="#fff"/><use xlink:href="#e" transform="matrix(1,0,0,1,665,265) translate(61.66624131944444 21.5234375)"/><path d="M820 340c22.1 0 40 8.95 40 20s-17.9 20-40 20H700c-22.1 0-40-8.95-40-20s17.9-20 40-20z" stroke="#5e5e5e" stroke-width="3" fill="#fff"/><use xlink:href="#f" transform="matrix(1,0,0,1,665,345) translate(61.66624131944444 21.5234375)"/><path d="M760 223.08v17.98" stroke="#9a9a9a" stroke-width="1.5" fill="none"/><path d="M760.75 223.1h-1.5v-.77h1.5z" fill="#9a9a9a"/><path d="M760 256.07l-4.64-14.26h9.28z" stroke="#9a9a9a" stroke-width="1.5" fill="#9a9a9a"/><path d="M760 302.25v18.8" stroke="#9a9a9a" stroke-width="1.5" fill="none"/><path d="M760.75 302.27h-1.5v-.77h1.5z" fill="#9a9a9a"/><path d="M760 336.07l-4.64-14.26h9.28z" stroke="#9a9a9a" stroke-width="1.5" fill="#9a9a9a"/><path d="M660 426c0-3.3 2.7-6 6-6h188c3.3 0 6 2.7 6 6v66.33c0 3.32-2.7 6-6 6H666c-3.3 0-6-2.68-6-6z" stroke="#5e5e5e" stroke-width="3" fill="#fff"/><use xlink:href="#g" transform="matrix(1,0,0,1,665,425) translate(14.986979166666643 30.7109375)"/><use xlink:href="#h" transform="matrix(1,0,0,1,665,425) translate(54.99348958333333 52.93315972222222)"/><path d="M480 420.58v20.48" stroke="#9a9a9a" stroke-width="1.5" fill="none"/><path d="M480.75 420.6h-1.5v-.77h1.5z" fill="#9a9a9a"/><path d="M480 456.07l-4.64-14.26h9.28z" stroke="#9a9a9a" stroke-width="1.5" fill="#9a9a9a"/><path d="M480 301.42v19.64" stroke="#9a9a9a" stroke-width="1.5" fill="none"/><path d="M480.75 301.44h-1.5v-.77h1.5z" fill="#9a9a9a"/><path d="M480 336.07l-4.64-14.26h9.28z" stroke="#9a9a9a" stroke-width="1.5" fill="#9a9a9a"/><path d="M760 382.25v18.8" stroke="#9a9a9a" stroke-width="1.5" fill="none"/><path d="M760.75 382.27h-1.5v-.77h1.5z" fill="#9a9a9a"/><path d="M760 416.07l-4.64-14.26h9.28z" stroke="#9a9a9a" stroke-width="1.5" fill="#9a9a9a"/><path d="M760 142.25v19.64" stroke="#9a9a9a" stroke-width="1.5" fill="none"/><path d="M760.75 142.27h-1.5v-.77h1.5z" fill="#9a9a9a"/><path d="M760 176.9l-4.64-14.26h9.28z" stroke="#9a9a9a" stroke-width="1.5" fill="#9a9a9a"/><defs><path fill="#333" d="M202-1349h823v156H709v1037h316V0H202v-156h316v-1037H202v-156" id="m"/><path fill="#333" d="M706-1102c241 0 344 136 343 381V0H868v-695c1-168-57-273-220-268-190 6-283 138-283 336V0H185c-3-360 6-732-6-1082h170c4 54 7 126 8 185h3c63-121 164-204 346-205" id="n"/><path fill="#333" d="M745-142h380V0H143v-142h422v-798H246v-142h499v940zM545-1292v-192h200v192H545" id="o"/><path fill="#333" d="M682 16c-209 0-323-80-324-285v-671H190v-142h170l58-282h120v282h432v142H538v652c2 114 60 155 182 155 106 0 209-16 297-34v137C921-4 806 16 682 16" id="p"/><path fill="#333" d="M1000-272c3 95 12 159 101 161 21 0 41-3 59-7V-6c-44 10-86 16-139 16-141 2-191-84-197-217h-6C748-76 648 20 446 20c-207 0-318-120-318-322 0-266 194-348 454-354l236-4c12-191-40-305-222-305-140 0-220 47-232 172l-188-17c33-204 181-292 423-292 255 0 401 118 401 364v466zm-683-27c0 109 63 184 175 182 166-3 259-96 306-217 24-65 20-120 20-200-232 7-501-28-501 235" id="q"/><path fill="#333" d="M736-142h380V0H134v-142h422v-1200H267v-142h469v1342" id="r"/><g id="a"><use transform="matrix(0.010850694444444444,0,0,0.010850694444444444,0,0)" xlink:href="#m"/><use transform="matrix(0.010850694444444444,0,0,0.010850694444444444,13.335503472222221,0)" xlink:href="#n"/><use transform="matrix(0.010850694444444444,0,0,0.010850694444444444,26.671006944444443,0)" xlink:href="#o"/><use transform="matrix(0.010850694444444444,0,0,0.010850694444444444,40.006510416666664,0)" xlink:href="#p"/><use transform="matrix(0.010850694444444444,0,0,0.010850694444444444,53.342013888888886,0)" xlink:href="#o"/><use transform="matrix(0.010850694444444444,0,0,0.010850694444444444,66.67751736111111,0)" xlink:href="#q"/><use transform="matrix(0.010850694444444444,0,0,0.010850694444444444,80.01302083333334,0)" xlink:href="#r"/></g><path fill="#333" d="M285-1169c8 382 2 780 4 1169H129v-1349h237c86 239 188 461 253 720 69-258 169-481 255-720h225V0H937c2-390-5-788 6-1169-75 255-170 488-259 729H547c-90-240-185-475-262-729" id="s"/><path fill="#333" d="M617-1102c355 0 481 238 477 599H322c5 222 84 388 301 388 144 0 244-59 284-166l158 45C1002-72 854 20 623 20c-342 0-490-220-490-568 0-346 151-554 484-554zm291 461c-18-192-90-328-289-328-194 0-287 128-295 328h584" id="t"/><path fill="#333" d="M904-1102c199 0 220 177 220 381V0H956v-686c-3-114 0-215-60-264-70-33-125-4-158 71-26 56-39 140-39 252V0H531v-686c-3-114-1-215-61-264-78-41-136 24-157 84-24 69-39 159-39 259V0H105c-3-360 6-732-6-1082h149c6 50 3 123 8 175 36-100 83-195 216-195 135 0 166 79 196 196 42-105 93-196 236-196" id="u"/><path fill="#333" d="M615-1102c343 0 484 203 482 560-1 347-147 562-488 562-336 0-475-219-479-562-4-349 156-560 485-560zm-8 989c240 0 301-180 301-429 0-245-55-427-290-427-236 0-299 181-299 427 0 243 61 429 288 429" id="v"/><path fill="#333" d="M839-1102c70 0 148 7 206 17v167c-112-18-268-36-363 15-129 69-208 203-208 395V0H294c-10-367 32-789-52-1082h171c21 75 41 161 48 250h5c67-152 152-270 373-270" id="w"/><path fill="#333" d="M168 279c222 39 310-114 368-290L66-1082h192c120 299 249 590 362 896 115-301 235-597 351-896h190L705 0c-65 164-130 320-275 396-67 36-177 35-262 18V279" id="x"/><g id="b"><use transform="matrix(0.010850694444444444,0,0,0.010850694444444444,0,0)" xlink:href="#s"/><use transform="matrix(0.010850694444444444,0,0,0.010850694444444444,13.335503472222221,0)" xlink:href="#t"/><use transform="matrix(0.010850694444444444,0,0,0.010850694444444444,26.671006944444443,0)" xlink:href="#u"/><use transform="matrix(0.010850694444444444,0,0,0.010850694444444444,40.006510416666664,0)" xlink:href="#v"/><use transform="matrix(0.010850694444444444,0,0,0.010850694444444444,53.342013888888886,0)" xlink:href="#w"/><use transform="matrix(0.010850694444444444,0,0,0.010850694444444444,66.67751736111111,0)" xlink:href="#x"/></g><path fill="#333" d="M-5 220v-96h1238v96H-5" id="y"/><path fill="#333" d="M365-904c58-129 161-200 334-200 130 0 228 46 293 138s98 233 98 420c0 189-34 331-102 425S824 20 698 20c-170 0-275-64-336-184 0 55-3 116-9 164H179c5-68 6-147 6-223v-1261h180c-2 193 4 394-4 580h4zm283 791c221 0 256-197 256-427 0-229-34-425-254-425-236 0-285 195-285 441 0 237 53 411 283 411" id="z"/><g id="c"><use transform="matrix(0.010850694444444444,0,0,0.010850694444444444,0,0)" xlink:href="#y"/><use transform="matrix(0.010850694444444444,0,0,0.010850694444444444,13.335503472222221,0)" xlink:href="#z"/><use transform="matrix(0.010850694444444444,0,0,0.010850694444444444,26.671006944444443,0)" xlink:href="#v"/><use transform="matrix(0.010850694444444444,0,0,0.010850694444444444,40.006510416666664,0)" xlink:href="#p"/><use transform="matrix(0.010850694444444444,0,0,0.010850694444444444,53.342013888888886,0)" xlink:href="#p"/><use transform="matrix(0.010850694444444444,0,0,0.010850694444444444,66.67751736111111,0)" xlink:href="#v"/><use transform="matrix(0.010850694444444444,0,0,0.010850694444444444,80.01302083333334,0)" xlink:href="#u"/></g><path fill="#333" d="M698-1104c312 3 392 244 392 558 0 315-82 566-392 566-169 0-277-65-331-184h-5c8 188 2 394 4 589H185V-858c0-76-1-156-6-224h175c6 52 9 120 10 178h4c58-122 150-202 330-200zm-49 991c225 0 255-203 255-433 0-225-32-419-253-419-236 0-285 192-285 441 0 237 53 411 283 411" id="A"/><g id="d"><use transform="matrix(0.010850694444444444,0,0,0.010850694444444444,0,0)" xlink:href="#y"/><use transform="matrix(0.010850694444444444,0,0,0.010850694444444444,13.335503472222221,0)" xlink:href="#p"/><use transform="matrix(0.010850694444444444,0,0,0.010850694444444444,26.671006944444443,0)" xlink:href="#v"/><use transform="matrix(0.010850694444444444,0,0,0.010850694444444444,40.006510416666664,0)" xlink:href="#A"/></g><path fill="#333" d="M873-819c-18-114-119-146-250-146-163 0-245 50-245 151 0 151 170 148 294 185 182 54 388 94 388 320 0 240-189 325-439 329-245 4-410-69-454-268l159-31c24 133 136 168 295 165 144-2 270-31 270-171 0-164-195-160-331-202-167-52-350-87-350-299 0-218 173-315 413-313 220 2 373 77 412 260" id="B"/><path fill="#333" d="M631 20c-350 0-501-215-501-562 0-355 162-560 502-560 250 0 399 118 446 323l-192 14c-23-124-109-196-262-196-242 0-305 171-305 415 1 245 61 427 304 427 151 0 248-77 267-215l190 12C1039-107 883 20 631 20" id="C"/><g id="e"><use transform="matrix(0.010850694444444444,0,0,0.010850694444444444,0,0)" xlink:href="#y"/><use transform="matrix(0.010850694444444444,0,0,0.010850694444444444,13.335503472222221,0)" xlink:href="#B"/><use transform="matrix(0.010850694444444444,0,0,0.010850694444444444,26.671006944444443,0)" xlink:href="#C"/><use transform="matrix(0.010850694444444444,0,0,0.010850694444444444,40.006510416666664,0)" xlink:href="#q"/><use transform="matrix(0.010850694444444444,0,0,0.010850694444444444,53.342013888888886,0)" xlink:href="#n"/></g><path fill="#333" d="M839-1335c-182-6-269 67-259 253h491v142H580V0H400v-940H138v-142h262c-15-293 132-408 418-402 94 2 200 7 281 21v145c-75-10-177-14-260-17" id="D"/><g id="f"><use transform="matrix(0.010850694444444444,0,0,0.010850694444444444,0,0)" xlink:href="#y"/><use transform="matrix(0.010850694444444444,0,0,0.010850694444444444,13.335503472222221,0)" xlink:href="#D"/><use transform="matrix(0.010850694444444444,0,0,0.010850694444444444,26.671006944444443,0)" xlink:href="#w"/><use transform="matrix(0.010850694444444444,0,0,0.010850694444444444,40.006510416666664,0)" xlink:href="#t"/><use transform="matrix(0.010850694444444444,0,0,0.010850694444444444,53.342013888888886,0)" xlink:href="#t"/></g><path fill="#333" d="M604-135c236 0 291-142 291-376v-838h190v859c5 340-142 510-480 510-326 0-463-164-463-492v-877h191v851c-3 222 46 363 271 363" id="E"/><path fill="#333" d="M865-914c-3-187-2-380-2-570h180v1261c0 76 1 155 6 223H877c-8-49-9-116-10-174h-5C801-44 708 26 530 26c-135 0-234-46-297-139s-95-232-95-419c0-377 131-566 392-566 176 0 271 63 335 184zm-286-51c-222 0-255 197-255 427 0 229 31 425 253 425 237 0 286-195 286-441 0-238-52-411-284-411" id="F"/><g id="g"><use transform="matrix(0.010850694444444444,0,0,0.010850694444444444,0,0)" xlink:href="#E"/><use transform="matrix(0.010850694444444444,0,0,0.010850694444444444,13.335503472222221,0)" xlink:href="#n"/><use transform="matrix(0.010850694444444444,0,0,0.010850694444444444,26.671006944444443,0)" xlink:href="#w"/><use transform="matrix(0.010850694444444444,0,0,0.010850694444444444,40.006510416666664,0)" xlink:href="#t"/><use transform="matrix(0.010850694444444444,0,0,0.010850694444444444,53.342013888888886,0)" xlink:href="#D"/><use transform="matrix(0.010850694444444444,0,0,0.010850694444444444,66.67751736111111,0)" xlink:href="#t"/><use transform="matrix(0.010850694444444444,0,0,0.010850694444444444,80.01302083333334,0)" xlink:href="#w"/><use transform="matrix(0.010850694444444444,0,0,0.010850694444444444,93.34852430555557,0)" xlink:href="#t"/><use transform="matrix(0.010850694444444444,0,0,0.010850694444444444,106.6840277777778,0)" xlink:href="#n"/><use transform="matrix(0.010850694444444444,0,0,0.010850694444444444,120.01953125000003,0)" xlink:href="#C"/><use transform="matrix(0.010850694444444444,0,0,0.010850694444444444,133.35503472222226,0)" xlink:href="#t"/><use transform="matrix(0.010850694444444444,0,0,0.010850694444444444,146.69053819444449,0)" xlink:href="#F"/></g><path fill="#333" d="M390 276c167 0 266-82 266-251v-965H249v-142h587V28c-4 270-165 397-431 397-107 0-208-16-288-43V242c80 18 173 34 273 34zm246-1568v-192h200v192H636" id="G"/><g id="h"><use transform="matrix(0.010850694444444444,0,0,0.010850694444444444,0,0)" xlink:href="#v"/><use transform="matrix(0.010850694444444444,0,0,0.010850694444444444,13.335503472222221,0)" xlink:href="#z"/><use transform="matrix(0.010850694444444444,0,0,0.010850694444444444,26.671006944444443,0)" xlink:href="#G"/><use transform="matrix(0.010850694444444444,0,0,0.010850694444444444,40.006510416666664,0)" xlink:href="#t"/><use transform="matrix(0.010850694444444444,0,0,0.010850694444444444,53.342013888888886,0)" xlink:href="#C"/><use transform="matrix(0.010850694444444444,0,0,0.010850694444444444,66.67751736111111,0)" xlink:href="#p"/></g><path fill="#333" d="M385-1193v494h676v158H385V0H194v-1349h891v156H385" id="H"/><g id="i"><use transform="matrix(0.010850694444444444,0,0,0.010850694444444444,0,0)" xlink:href="#H"/><use transform="matrix(0.010850694444444444,0,0,0.010850694444444444,13.335503472222221,0)" xlink:href="#o"/><use transform="matrix(0.010850694444444444,0,0,0.010850694444444444,26.671006944444443,0)" xlink:href="#w"/><use transform="matrix(0.010850694444444444,0,0,0.010850694444444444,40.006510416666664,0)" xlink:href="#B"/><use transform="matrix(0.010850694444444444,0,0,0.010850694444444444,53.342013888888886,0)" xlink:href="#p"/></g><path fill="#333" d="M655-135c108 0 195-33 260-74v-336H622v-160h479v572C981-54 839 20 639 20c-388 0-526-306-526-701 0-406 129-689 529-689 261 0 392 137 461 331l-171 56c-47-131-122-231-288-231-281 0-330 245-330 533 0 179 28 314 84 407s142 139 257 139" id="I"/><path fill="#333" d="M650-1214c-281 0-336 244-336 533 0 295 60 546 347 546 188 0 263-142 322-282l159 65C1058-155 935 20 659 20c-401 0-546-295-546-701 0-407 135-689 536-689 264 0 391 146 466 335l-168 65c-47-129-127-244-297-244" id="J"/><g id="j"><use transform="matrix(0.010850694444444444,0,0,0.010850694444444444,0,0)" xlink:href="#I"/><use transform="matrix(0.010850694444444444,0,0,0.010850694444444444,13.335503472222221,0)" xlink:href="#J"/></g><g id="k"><use transform="matrix(0.010850694444444444,0,0,0.010850694444444444,0,0)" xlink:href="#y"/><use transform="matrix(0.010850694444444444,0,0,0.010850694444444444,13.335503472222221,0)" xlink:href="#z"/><use transform="matrix(0.010850694444444444,0,0,0.010850694444444444,26.671006944444443,0)" xlink:href="#v"/><use transform="matrix(0.010850694444444444,0,0,0.010850694444444444,40.006510416666664,0)" xlink:href="#p"/><use transform="matrix(0.010850694444444444,0,0,0.010850694444444444,53.342013888888886,0)" xlink:href="#p"/><use transform="matrix(0.010850694444444444,0,0,0.010850694444444444,66.67751736111111,0)" xlink:href="#v"/><use transform="matrix(0.010850694444444444,0,0,0.010850694444444444,80.01302083333334,0)" xlink:href="#u"/></g><path fill="#333" d="M614-1226c-167 1-283 53-283 213 0 183 186 193 334 234 230 63 463 120 463 409 0 286-219 387-518 390C309 23 131-98 79-338l185-37c34 165 149 248 351 246 184-2 324-58 324-238 0-203-207-221-372-266-210-57-422-111-422-377 0-267 201-356 470-360 279-5 430 101 480 324l-188 33c-28-141-121-215-293-213" id="K"/><g id="l"><use transform="matrix(0.010850694444444444,0,0,0.010850694444444444,0,0)" xlink:href="#K"/><use transform="matrix(0.010850694444444444,0,0,0.010850694444444444,13.335503472222221,0)" xlink:href="#t"/><use transform="matrix(0.010850694444444444,0,0,0.010850694444444444,26.671006944444443,0)" xlink:href="#C"/><use transform="matrix(0.010850694444444444,0,0,0.010850694444444444,40.006510416666664,0)" xlink:href="#v"/><use transform="matrix(0.010850694444444444,0,0,0.010850694444444444,53.342013888888886,0)" xlink:href="#n"/><use transform="matrix(0.010850694444444444,0,0,0.010850694444444444,66.67751736111111,0)" xlink:href="#F"/></g></defs></g></svg>